<?xml version="1.0" encoding="UTF-8" standalone="no"?>
<!-- Created with Inkscape (http://www.inkscape.org/) -->

<svg
   xmlns:dc="http://purl.org/dc/elements/1.1/"
   xmlns:cc="http://creativecommons.org/ns#"
   xmlns:rdf="http://www.w3.org/1999/02/22-rdf-syntax-ns#"
   xmlns:svg="http://www.w3.org/2000/svg"
   xmlns="http://www.w3.org/2000/svg"
   version="1.1"
   width="387.5"
   height="155"
   id="svg2"
   xml:space="preserve"><title
     id="title3011">MPFR logo</title><metadata
     id="metadata8"><rdf:RDF><cc:Work
         rdf:about=""><dc:format>image/svg+xml</dc:format><dc:type
           rdf:resource="http://purl.org/dc/dcmitype/StillImage" /><dc:title>MPFR logo</dc:title><dc:rights><cc:Agent><dc:title>Julien Chapiseau</dc:title></cc:Agent></dc:rights><dc:creator><cc:Agent><dc:title></dc:title></cc:Agent></dc:creator><dc:description>MPFR logo - Copyright (c) 2004 Julien Chapiseau.
Permission is hereby granted, free of charge, to any person obtaining a copy of this logo, to deal in the logo without restriction, including without limitation the rights to use, copy, modify, merge, publish, distribute, sublicense, and/or sell copies of the logo, and to permit persons to whom the logo is furnished to do so, subject to the following conditions:
The above copyright notice and this permission notice shall be included in all copies or substantial portions of the logo.</dc:description><dc:contributor><cc:Agent><dc:title>Conversion to SVG with Inkscape by Vincent Lefèvre.</dc:title></cc:Agent></dc:contributor><dc:date>2011-09-27</dc:date></cc:Work></rdf:RDF></metadata><defs
     id="defs6"><clipPath
       id="clipPath22"><path
         d="m 2627.93,227.071 134.14,0 0,105.858 -134.14,0 0,-105.858 z"
         id="path24" /></clipPath></defs><g
     transform="matrix(1.25,0,0,-1.25,0,155)"
     id="g10"><g
       transform="scale(0.1,0.1)"
       id="g12"><g
         id="g14"><path
           d="M 205,5 420,1230 M 0,280 l 2090,0 m 210,0 0,0 c 0,57.99 -47.01,105 -105,105 -57.99,0 -105,-47.01 -105,-105 0,-57.99 47.01,-105 105,-105 57.99,0 105,47.01 105,105 l 40,0 m 210,0 0,0 c 0,57.99 -47.01,105 -105,105 -57.99,0 -105,-47.01 -105,-105 0,-57.99 47.01,-105 105,-105 57.99,0 105,47.01 105,105 l 40,0 m 210,0 0,0 c 0,57.99 -47.01,105 -105,105 -57.99,0 -105,-47.01 -105,-105 0,-57.99 47.01,-105 105,-105 57.99,0 105,47.01 105,105 l 40,0 m 210,0 0,0 c 0,57.99 -47.01,105 -105,105 -57.99,0 -105,-47.01 -105,-105 0,-57.99 47.01,-105 105,-105 57.99,0 105,47.01 105,105 m -925,0 140,0 m -70,70 0,-140 m -1772.5,70 0,0 c 0,91.127 -73.873,165 -165,165 -91.127,0 -165,-73.873 -165,-165 0,-91.127 73.873,-165 165,-165 91.127,0 165,73.873 165,165 m 1952.5,0 140,0"
           id="path16"
           style="fill:none;stroke:#e21377;stroke-width:20;stroke-linecap:butt;stroke-linejoin:miter;stroke-miterlimit:10;stroke-opacity:1;stroke-dasharray:none" /></g><g
         id="g18"><g
           clip-path="url(#clipPath22)"
           id="g20"><path
             d="m 2635,220 120,120 m -120,0 120,-120"
             id="path26"
             style="fill:none;stroke:#e21377;stroke-width:20;stroke-linecap:butt;stroke-linejoin:miter;stroke-miterlimit:10;stroke-opacity:1;stroke-dasharray:none" /></g></g><g
         id="g28"><path
           d="m 2985,260 0,0 c 0,5.523 -4.48,10 -10,10 -5.52,0 -10,-4.477 -10,-10 0,-5.523 4.48,-10 10,-10 5.52,0 10,4.477 10,10"
           id="path30"
           style="fill:none;stroke:#e21377;stroke-width:5;stroke-linecap:butt;stroke-linejoin:miter;stroke-miterlimit:10;stroke-opacity:1;stroke-dasharray:none" /><path
           d="m 2460,325 0,0 c 0,8.284 -6.72,15 -15,15 -8.28,0 -15,-6.716 -15,-15 0,-8.284 6.72,-15 15,-15 8.28,0 15,6.716 15,15 m 0,-85 0,0 c 0,8.284 -6.72,15 -15,15 -8.28,0 -15,-6.716 -15,-15 0,-8.284 6.72,-15 15,-15 8.28,0 15,6.716 15,15 m 476,84.5 -18,-74.5 -18,74.5 -12,0 25,-100 10,0 23,92.5 64,0 0,7.5"
           id="path32"
           style="fill:#e21377;fill-opacity:1;fill-rule:nonzero;stroke:none" /><path
           d="m 830,426 -132,0 -23,654 -107,-654 -125,0 141,784 197.2,0 20.8,-550 225,550 201,0 -138,-784 -126,0 129,649 -262,-649 m 532,0 -137,0 141,784 269,0 c 52,0 91,-7.5 119,-22 28,-13 50,-35.5 67,-65.5 17,-29.5 25,-67.5 25,-107.5 0,-53 -10,-101 -30,-145 -20,-45 -45,-76 -75,-97 -30,-21 -66,-35 -107,-43 -22,-5 -66,-5 -132,-5 l -86,0 -54,-299 z m 77,429 40,0 c 70,0 117,5 143,13 25,9 46,25 62,47 17,25 25,52.5 25,85 0,31 -12,55 -36,67.5 -14,7.5 -46,12.5 -97,12.5 l -96,0 -41,-225 m 412,-429 141,784 471,0 -23,-130 -334,0 -34,-189 328,0 -24,-131 -327,0 -60,-334 -138,0 m 712,0 -138,0 141,784 299,0 c 55,0 97,-8 124,-22 27,-13 49,-36 67,-67 17,-31 25,-70 25,-117 0,-69 -18,-125 -53,-166.5 -39,-42.5 -87,-67.5 -154,-77.5 19,-20 37,-48 55,-85 31,-60 70,-143 104,-249 l -150,0 c -7,22 -28,82 -65,179 -19,50 -36,86 -51,107 -11,15 -22,25 -33,30.5 -11,5.5 -30,7.5 -56,7.5 l -57,0 -58,-324 z m 79,442 74,0 c 70,0 117,4.5 142,12 25,9 45,25 62,47 16,23 24,47 24,74 0,29 -10,51 -31,65 -12,8 -39,14 -80,14 l -153,0 -38,-212"
           id="path34"
           style="fill:#006080;fill-opacity:1;fill-rule:nonzero;stroke:none" /></g></g></g></svg>
